<mxfile host="app.diagrams.net" modified="2024-03-18T08:58:01.540Z" agent="Mozilla/5.0 (Windows NT 10.0; Win64; x64) AppleWebKit/537.36 (KHTML, like Gecko) Chrome/122.0.0.0 Safari/537.36" etag="PRGdAVjCJVOfNbSr2Ci1" version="24.0.7" type="device">
  <diagram name="Seite-1" id="QdFkA-Oq4qSmeb9wDdjs">
    <mxGraphModel dx="1434" dy="746" grid="1" gridSize="10" guides="1" tooltips="1" connect="1" arrows="1" fold="1" page="1" pageScale="1" pageWidth="827" pageHeight="1169" math="0" shadow="0">
      <root>
        <mxCell id="0" />
        <mxCell id="1" parent="0" />
        <mxCell id="pBzNhiSca4lOtjsr09U5-3" value="" style="ellipse;html=1;shape=endState;fillColor=#000000;strokeColor=#ff0000;" parent="1" vertex="1">
          <mxGeometry x="257" y="1100" width="30" height="30" as="geometry" />
        </mxCell>
        <mxCell id="XlfYOej_HVXklYiYra_i-9" value="" style="ellipse;html=1;shape=startState;fillColor=#000000;strokeColor=#ff0000;" parent="1" vertex="1">
          <mxGeometry x="20" y="85" width="30" height="30" as="geometry" />
        </mxCell>
        <mxCell id="XlfYOej_HVXklYiYra_i-10" value="" style="edgeStyle=orthogonalEdgeStyle;html=1;verticalAlign=bottom;endArrow=open;endSize=8;strokeColor=#ff0000;rounded=0;entryX=0;entryY=0.5;entryDx=0;entryDy=0;" parent="1" source="XlfYOej_HVXklYiYra_i-9" target="XlfYOej_HVXklYiYra_i-1" edge="1">
          <mxGeometry relative="1" as="geometry">
            <mxPoint x="25" y="160" as="targetPoint" />
          </mxGeometry>
        </mxCell>
        <mxCell id="XlfYOej_HVXklYiYra_i-15" value="" style="endArrow=open;startArrow=none;endFill=0;startFill=0;endSize=8;html=1;verticalAlign=bottom;labelBackgroundColor=none;strokeWidth=1;rounded=0;exitX=0.5;exitY=1;exitDx=0;exitDy=0;entryX=0;entryY=0.5;entryDx=0;entryDy=0;" parent="1" source="XlfYOej_HVXklYiYra_i-14" edge="1" target="i9oDdeUEoIoM4HML7qGa-9">
          <mxGeometry width="160" relative="1" as="geometry">
            <mxPoint x="529" y="640" as="sourcePoint" />
            <mxPoint x="450" y="640" as="targetPoint" />
          </mxGeometry>
        </mxCell>
        <mxCell id="XlfYOej_HVXklYiYra_i-17" value="" style="endArrow=open;startArrow=none;endFill=0;startFill=0;endSize=8;html=1;verticalAlign=bottom;labelBackgroundColor=none;strokeWidth=1;rounded=0;entryX=0.5;entryY=0;entryDx=0;entryDy=0;" parent="1" target="pBzNhiSca4lOtjsr09U5-3" edge="1">
          <mxGeometry width="160" relative="1" as="geometry">
            <mxPoint x="272" y="1010" as="sourcePoint" />
            <mxPoint x="86" y="1080" as="targetPoint" />
          </mxGeometry>
        </mxCell>
        <mxCell id="XlfYOej_HVXklYiYra_i-20" value="Kunde" style="swimlane;whiteSpace=wrap;html=1;" parent="1" vertex="1">
          <mxGeometry x="130" y="40" width="284" height="1010" as="geometry" />
        </mxCell>
        <mxCell id="XlfYOej_HVXklYiYra_i-1" value="App - Auswahl&lt;br&gt;Trinken&lt;br&gt;Essen" style="rounded=1;whiteSpace=wrap;html=1;" parent="XlfYOej_HVXklYiYra_i-20" vertex="1">
          <mxGeometry x="82" y="30" width="120" height="60" as="geometry" />
        </mxCell>
        <mxCell id="XlfYOej_HVXklYiYra_i-6" value="" style="rhombus;whiteSpace=wrap;html=1;" parent="XlfYOej_HVXklYiYra_i-20" vertex="1">
          <mxGeometry x="102" y="120" width="80" height="80" as="geometry" />
        </mxCell>
        <mxCell id="XlfYOej_HVXklYiYra_i-13" value="" style="endArrow=open;startArrow=none;endFill=0;startFill=0;endSize=8;html=1;verticalAlign=bottom;labelBackgroundColor=none;strokeWidth=1;rounded=0;entryX=0.5;entryY=0;entryDx=0;entryDy=0;exitX=0.5;exitY=1;exitDx=0;exitDy=0;" parent="XlfYOej_HVXklYiYra_i-20" target="XlfYOej_HVXklYiYra_i-6" edge="1" source="XlfYOej_HVXklYiYra_i-1">
          <mxGeometry width="160" relative="1" as="geometry">
            <mxPoint x="19" y="600" as="sourcePoint" />
            <mxPoint x="99" y="600" as="targetPoint" />
          </mxGeometry>
        </mxCell>
        <mxCell id="XlfYOej_HVXklYiYra_i-2" value="Essen auswaehlen&lt;br&gt;Art/Groesse" style="rounded=1;whiteSpace=wrap;html=1;" parent="XlfYOej_HVXklYiYra_i-20" vertex="1">
          <mxGeometry x="150" y="430" width="120" height="60" as="geometry" />
        </mxCell>
        <mxCell id="XlfYOej_HVXklYiYra_i-3" value="Trinken auswaehlen&lt;br&gt;Art/Groesse" style="rounded=1;whiteSpace=wrap;html=1;" parent="XlfYOej_HVXklYiYra_i-20" vertex="1">
          <mxGeometry x="10" y="430" width="120" height="60" as="geometry" />
        </mxCell>
        <mxCell id="XlfYOej_HVXklYiYra_i-14" value="" style="rhombus;whiteSpace=wrap;html=1;" parent="XlfYOej_HVXklYiYra_i-20" vertex="1">
          <mxGeometry x="102" y="520" width="80" height="80" as="geometry" />
        </mxCell>
        <mxCell id="XlfYOej_HVXklYiYra_i-11" value="" style="endArrow=open;startArrow=none;endFill=0;startFill=0;endSize=8;html=1;verticalAlign=bottom;labelBackgroundColor=none;strokeWidth=1;rounded=0;entryX=0;entryY=0.5;entryDx=0;entryDy=0;exitX=0.5;exitY=1;exitDx=0;exitDy=0;" parent="XlfYOej_HVXklYiYra_i-20" source="XlfYOej_HVXklYiYra_i-3" target="XlfYOej_HVXklYiYra_i-14" edge="1">
          <mxGeometry width="160" relative="1" as="geometry">
            <mxPoint x="-31" y="1390" as="sourcePoint" />
            <mxPoint x="129" y="1390" as="targetPoint" />
            <Array as="points">
              <mxPoint x="70" y="560" />
            </Array>
          </mxGeometry>
        </mxCell>
        <mxCell id="XlfYOej_HVXklYiYra_i-12" value="" style="endArrow=open;startArrow=none;endFill=0;startFill=0;endSize=8;html=1;verticalAlign=bottom;labelBackgroundColor=none;strokeWidth=1;rounded=0;entryX=1;entryY=0.5;entryDx=0;entryDy=0;exitX=0.5;exitY=1;exitDx=0;exitDy=0;" parent="XlfYOej_HVXklYiYra_i-20" source="XlfYOej_HVXklYiYra_i-2" target="XlfYOej_HVXklYiYra_i-14" edge="1">
          <mxGeometry width="160" relative="1" as="geometry">
            <mxPoint x="-41" y="1340" as="sourcePoint" />
            <mxPoint x="119" y="1340" as="targetPoint" />
            <Array as="points">
              <mxPoint x="210" y="560" />
            </Array>
          </mxGeometry>
        </mxCell>
        <mxCell id="XlfYOej_HVXklYiYra_i-5" value="Ausgabefach via&lt;br&gt;App oeffnen" style="rounded=1;whiteSpace=wrap;html=1;" parent="XlfYOej_HVXklYiYra_i-20" vertex="1">
          <mxGeometry x="80" y="740" width="120" height="60" as="geometry" />
        </mxCell>
        <mxCell id="XlfYOej_HVXklYiYra_i-4" value="Ausgabefach&lt;br&gt;schliessen" style="rounded=1;whiteSpace=wrap;html=1;" parent="XlfYOej_HVXklYiYra_i-20" vertex="1">
          <mxGeometry x="80" y="830" width="120" height="60" as="geometry" />
        </mxCell>
        <mxCell id="XlfYOej_HVXklYiYra_i-16" value="" style="endArrow=open;startArrow=none;endFill=0;startFill=0;endSize=8;html=1;verticalAlign=bottom;labelBackgroundColor=none;strokeWidth=1;rounded=0;exitX=0.5;exitY=1;exitDx=0;exitDy=0;" parent="XlfYOej_HVXklYiYra_i-20" source="XlfYOej_HVXklYiYra_i-5" target="XlfYOej_HVXklYiYra_i-4" edge="1">
          <mxGeometry width="160" relative="1" as="geometry">
            <mxPoint x="221" y="1160" as="sourcePoint" />
            <mxPoint x="381" y="1160" as="targetPoint" />
          </mxGeometry>
        </mxCell>
        <mxCell id="i9oDdeUEoIoM4HML7qGa-3" value="Anzeige Angebot&lt;br&gt;Trinken" style="rounded=1;whiteSpace=wrap;html=1;" vertex="1" parent="XlfYOej_HVXklYiYra_i-20">
          <mxGeometry x="10" y="280" width="120" height="60" as="geometry" />
        </mxCell>
        <mxCell id="i9oDdeUEoIoM4HML7qGa-2" value="Anzeige Angebot&lt;br&gt;Essen" style="rounded=1;whiteSpace=wrap;html=1;" vertex="1" parent="XlfYOej_HVXklYiYra_i-20">
          <mxGeometry x="150" y="330" width="120" height="60" as="geometry" />
        </mxCell>
        <mxCell id="i9oDdeUEoIoM4HML7qGa-7" value="" style="endArrow=open;startArrow=none;endFill=0;startFill=0;endSize=8;html=1;verticalAlign=bottom;labelBackgroundColor=none;strokeWidth=1;rounded=0;exitX=0.5;exitY=1;exitDx=0;exitDy=0;entryX=0.5;entryY=0;entryDx=0;entryDy=0;" edge="1" parent="XlfYOej_HVXklYiYra_i-20" source="i9oDdeUEoIoM4HML7qGa-3" target="XlfYOej_HVXklYiYra_i-3">
          <mxGeometry width="160" relative="1" as="geometry">
            <mxPoint x="200" y="440" as="sourcePoint" />
            <mxPoint x="360" y="440" as="targetPoint" />
          </mxGeometry>
        </mxCell>
        <mxCell id="i9oDdeUEoIoM4HML7qGa-8" value="" style="endArrow=open;startArrow=none;endFill=0;startFill=0;endSize=8;html=1;verticalAlign=bottom;labelBackgroundColor=none;strokeWidth=1;rounded=0;exitX=0.5;exitY=1;exitDx=0;exitDy=0;entryX=0.5;entryY=0;entryDx=0;entryDy=0;" edge="1" parent="XlfYOej_HVXklYiYra_i-20" source="i9oDdeUEoIoM4HML7qGa-2" target="XlfYOej_HVXklYiYra_i-2">
          <mxGeometry width="160" relative="1" as="geometry">
            <mxPoint x="200" y="440" as="sourcePoint" />
            <mxPoint x="360" y="440" as="targetPoint" />
          </mxGeometry>
        </mxCell>
        <mxCell id="i9oDdeUEoIoM4HML7qGa-11" value="Anzeigen&lt;br&gt;Ausgabefach" style="rounded=1;whiteSpace=wrap;html=1;" vertex="1" parent="XlfYOej_HVXklYiYra_i-20">
          <mxGeometry x="80" y="650" width="120" height="60" as="geometry" />
        </mxCell>
        <mxCell id="i9oDdeUEoIoM4HML7qGa-10" value="Belastung&lt;br&gt;Kundenkonto" style="rounded=1;whiteSpace=wrap;html=1;" vertex="1" parent="XlfYOej_HVXklYiYra_i-20">
          <mxGeometry x="80" y="920" width="120" height="60" as="geometry" />
        </mxCell>
        <mxCell id="i9oDdeUEoIoM4HML7qGa-13" value="" style="endArrow=open;startArrow=none;endFill=0;startFill=0;endSize=8;html=1;verticalAlign=bottom;labelBackgroundColor=none;strokeWidth=1;rounded=0;exitX=0.5;exitY=1;exitDx=0;exitDy=0;entryX=0.5;entryY=0;entryDx=0;entryDy=0;" edge="1" parent="XlfYOej_HVXklYiYra_i-20" source="XlfYOej_HVXklYiYra_i-4" target="i9oDdeUEoIoM4HML7qGa-10">
          <mxGeometry width="160" relative="1" as="geometry">
            <mxPoint x="200" y="640" as="sourcePoint" />
            <mxPoint x="360" y="640" as="targetPoint" />
          </mxGeometry>
        </mxCell>
        <mxCell id="i9oDdeUEoIoM4HML7qGa-14" value="" style="endArrow=open;startArrow=none;endFill=0;startFill=0;endSize=8;html=1;verticalAlign=bottom;labelBackgroundColor=none;strokeWidth=1;rounded=0;exitX=0.5;exitY=1;exitDx=0;exitDy=0;entryX=0.5;entryY=0;entryDx=0;entryDy=0;" edge="1" parent="XlfYOej_HVXklYiYra_i-20" source="i9oDdeUEoIoM4HML7qGa-11" target="XlfYOej_HVXklYiYra_i-5">
          <mxGeometry width="160" relative="1" as="geometry">
            <mxPoint x="200" y="640" as="sourcePoint" />
            <mxPoint x="360" y="640" as="targetPoint" />
          </mxGeometry>
        </mxCell>
        <mxCell id="XlfYOej_HVXklYiYra_i-21" value="Popkornmaschine" style="swimlane;whiteSpace=wrap;html=1;" parent="1" vertex="1">
          <mxGeometry x="414" y="40" width="296" height="1010" as="geometry" />
        </mxCell>
        <mxCell id="i9oDdeUEoIoM4HML7qGa-1" value="Check Vorrat&lt;br&gt;Trinken&lt;br&gt;Verpackungen" style="rounded=1;whiteSpace=wrap;html=1;" vertex="1" parent="XlfYOej_HVXklYiYra_i-21">
          <mxGeometry x="76" y="200" width="120" height="60" as="geometry" />
        </mxCell>
        <mxCell id="i9oDdeUEoIoM4HML7qGa-4" value="Check Vorrat&lt;br&gt;Essen&lt;br&gt;Verpackungen" style="rounded=1;whiteSpace=wrap;html=1;" vertex="1" parent="XlfYOej_HVXklYiYra_i-21">
          <mxGeometry x="76" y="130" width="120" height="60" as="geometry" />
        </mxCell>
        <mxCell id="i9oDdeUEoIoM4HML7qGa-9" value="Zubereitung&lt;br&gt;Essen/Trinken" style="rounded=1;whiteSpace=wrap;html=1;" vertex="1" parent="XlfYOej_HVXklYiYra_i-21">
          <mxGeometry x="76" y="570" width="120" height="60" as="geometry" />
        </mxCell>
        <mxCell id="XlfYOej_HVXklYiYra_i-8" value="Auswahl Essen" style="html=1;verticalAlign=bottom;labelBackgroundColor=none;endArrow=open;endFill=0;rounded=0;exitX=1;exitY=0.5;exitDx=0;exitDy=0;entryX=0;entryY=0.5;entryDx=0;entryDy=0;" parent="1" source="XlfYOej_HVXklYiYra_i-6" edge="1" target="i9oDdeUEoIoM4HML7qGa-4">
          <mxGeometry x="-0.4607" y="10" width="160" relative="1" as="geometry">
            <mxPoint x="149" y="550" as="sourcePoint" />
            <mxPoint x="460" y="220" as="targetPoint" />
            <mxPoint as="offset" />
          </mxGeometry>
        </mxCell>
        <mxCell id="XlfYOej_HVXklYiYra_i-7" value="Auswahl Trinken" style="html=1;verticalAlign=bottom;labelBackgroundColor=none;endArrow=open;endFill=0;rounded=0;entryX=0;entryY=0.5;entryDx=0;entryDy=0;exitX=0;exitY=0.5;exitDx=0;exitDy=0;" parent="1" source="XlfYOej_HVXklYiYra_i-6" edge="1" target="i9oDdeUEoIoM4HML7qGa-1">
          <mxGeometry x="-0.6774" y="-50" width="160" relative="1" as="geometry">
            <mxPoint x="230" y="200" as="sourcePoint" />
            <mxPoint x="319" y="729.5" as="targetPoint" />
            <mxPoint as="offset" />
            <Array as="points">
              <mxPoint x="230" y="270" />
            </Array>
          </mxGeometry>
        </mxCell>
        <mxCell id="i9oDdeUEoIoM4HML7qGa-6" value="" style="endArrow=open;startArrow=none;endFill=0;startFill=0;endSize=8;html=1;verticalAlign=bottom;labelBackgroundColor=none;strokeWidth=1;rounded=0;exitX=0.5;exitY=1;exitDx=0;exitDy=0;entryX=1;entryY=0.5;entryDx=0;entryDy=0;" edge="1" parent="1" source="i9oDdeUEoIoM4HML7qGa-1" target="i9oDdeUEoIoM4HML7qGa-3">
          <mxGeometry width="160" relative="1" as="geometry">
            <mxPoint x="330" y="280" as="sourcePoint" />
            <mxPoint x="490" y="280" as="targetPoint" />
            <Array as="points">
              <mxPoint x="550" y="350" />
              <mxPoint x="500" y="350" />
            </Array>
          </mxGeometry>
        </mxCell>
        <mxCell id="i9oDdeUEoIoM4HML7qGa-5" value="" style="endArrow=open;startArrow=none;endFill=0;startFill=0;endSize=8;html=1;verticalAlign=bottom;labelBackgroundColor=none;strokeWidth=1;rounded=0;entryX=1;entryY=0.5;entryDx=0;entryDy=0;exitX=1;exitY=0.5;exitDx=0;exitDy=0;" edge="1" parent="1" source="i9oDdeUEoIoM4HML7qGa-4" target="i9oDdeUEoIoM4HML7qGa-2">
          <mxGeometry width="160" relative="1" as="geometry">
            <mxPoint x="560" y="109.5" as="sourcePoint" />
            <mxPoint x="620" y="400" as="targetPoint" />
            <Array as="points">
              <mxPoint x="670" y="200" />
              <mxPoint x="670" y="400" />
            </Array>
          </mxGeometry>
        </mxCell>
        <mxCell id="i9oDdeUEoIoM4HML7qGa-12" value="" style="endArrow=open;startArrow=none;endFill=0;startFill=0;endSize=8;html=1;verticalAlign=bottom;labelBackgroundColor=none;strokeWidth=1;rounded=0;exitX=0.5;exitY=1;exitDx=0;exitDy=0;entryX=1.008;entryY=0.617;entryDx=0;entryDy=0;entryPerimeter=0;" edge="1" parent="1" source="i9oDdeUEoIoM4HML7qGa-9" target="i9oDdeUEoIoM4HML7qGa-11">
          <mxGeometry width="160" relative="1" as="geometry">
            <mxPoint x="330" y="580" as="sourcePoint" />
            <mxPoint x="490" y="580" as="targetPoint" />
            <Array as="points">
              <mxPoint x="550" y="727" />
            </Array>
          </mxGeometry>
        </mxCell>
      </root>
    </mxGraphModel>
  </diagram>
</mxfile>
